<?xml version="1.0" standalone="no"?>
<!DOCTYPE svg PUBLIC "-//W3C//DTD SVG 20010904//EN"
 "http://www.w3.org/TR/2001/REC-SVG-20010904/DTD/svg10.dtd">
<svg version="1.0" xmlns="http://www.w3.org/2000/svg"
 width="512.000000pt" height="512.000000pt" viewBox="0 0 512.000000 512.000000"
 preserveAspectRatio="xMidYMid meet">
<metadata>
Created by potrace 1.11, written by Peter Selinger 2001-2013
</metadata>
<g transform="translate(0.000000,512.000000) scale(0.100000,-0.100000)"
fill="#000000" stroke="none">
<path d="M2378 5115 c-2 -2 -34 -6 -73 -9 -204 -20 -432 -71 -621 -141 -279
-104 -561 -266 -770 -445 -397 -340 -676 -769 -814 -1256 -16 -55 -31 -112
-34 -125 -2 -13 -9 -46 -15 -72 -6 -27 -14 -72 -17 -100 -3 -29 -7 -54 -9 -57
-18 -29 -26 -458 -12 -603 57 -588 325 -1148 743 -1558 132 -129 163 -156 281
-245 203 -154 492 -302 743 -382 81 -26 252 -69 305 -76 22 -4 47 -8 55 -11 8
-2 35 -6 60 -9 25 -3 72 -9 105 -13 124 -14 541 -7 597 12 7 2 36 6 63 9 137
16 398 89 559 156 886 369 1481 1164 1583 2115 21 194 1 633 -32 717 -6 15
-102 16 -1231 16 -901 0 -1224 -3 -1225 -12 -5 -55 -3 -975 2 -986 6 -13 92
-15 683 -15 457 0 676 -3 676 -10 0 -5 -22 -56 -49 -111 -101 -210 -249 -395
-430 -537 -70 -55 -176 -127 -188 -127 -3 0 -14 -6 -22 -13 -31 -26 -239 -112
-321 -133 -57 -14 -163 -36 -205 -42 -86 -12 -385 -8 -455 7 -36 7 -73 15 -82
16 -9 2 -50 13 -90 24 -245 69 -465 200 -654 388 -144 143 -265 328 -345 528
-31 78 -76 251 -87 339 -9 71 -8 360 2 426 55 381 272 749 583 990 164 128
401 234 623 281 183 38 496 33 655 -11 141 -39 223 -70 330 -125 l122 -61 164
133 c90 74 173 142 184 151 57 48 295 243 345 282 96 76 133 111 124 119 -30
26 -180 135 -240 173 -190 122 -421 230 -624 291 -98 30 -164 47 -200 53 -14
3 -32 7 -40 9 -8 2 -28 7 -45 10 -16 2 -41 7 -55 10 -14 3 -47 8 -75 11 -27 3
-61 8 -75 11 -25 6 -446 13 -452 8z"/>
</g>
</svg>
